<?xml version="1.0" encoding="utf-8" standalone="no"?>
<!DOCTYPE svg PUBLIC "-//W3C//DTD SVG 1.1//EN"
  "http://www.w3.org/Graphics/SVG/1.1/DTD/svg11.dtd">
<!-- Created with matplotlib (https://matplotlib.org/) -->
<svg height="51.12pt" version="1.1" viewBox="0 0 89.37 51.12" width="89.37pt" xmlns="http://www.w3.org/2000/svg" xmlns:xlink="http://www.w3.org/1999/xlink">
 <defs>
  <style type="text/css">
*{stroke-linecap:butt;stroke-linejoin:round;}
  </style>
 </defs>
 <g id="figure_1">
  <g id="patch_1">
   <path d="M 0 51.12 
L 89.37 51.12 
L 89.37 0 
L 0 0 
z
" style="fill:none;"/>
  </g>
  <g id="axes_1">
   <g id="patch_2">
    <path clip-path="url(#p7aa5c49b5a)" d="M 63.81 40.86 
C 67.867607 40.86 71.759572 39.247895 74.628734 36.378734 
C 77.497895 33.509572 79.11 29.617607 79.11 25.56 
C 79.11 21.502393 77.497895 17.610428 74.628734 14.741266 
C 71.759572 11.872105 67.867607 10.26 63.81 10.26 
C 59.752393 10.26 55.860428 11.872105 52.991266 14.741266 
C 50.122105 17.610428 48.51 21.502393 48.51 25.56 
C 48.51 29.617607 50.122105 33.509572 52.991266 36.378734 
C 55.860428 39.247895 59.752393 40.86 63.81 40.86 
z
" style="fill:#ffffff;stroke:#000000;stroke-linejoin:miter;stroke-width:2;"/>
   </g>
   <g id="patch_3">
    <path clip-path="url(#p7aa5c49b5a)" d="M 57.340216 27.914809 
C 57.78842 29.146238 58.57902 30.22448 59.618678 31.022238 
C 60.658335 31.819995 61.90446 32.304586 63.209933 32.4188 
C 64.515406 32.533015 65.826747 32.272173 66.989139 31.66707 
C 68.151531 31.061967 69.117355 30.137391 69.772585 29.0025 
C 70.427815 27.867609 70.745608 26.568893 70.688447 25.259681 
C 70.631286 23.950468 70.201511 22.684392 69.449862 21.610926 
C 68.698213 20.537461 67.655482 19.700581 66.444775 19.199089 
C 65.234069 18.697598 63.904983 18.55204 62.614432 18.779599 
" style="fill:none;stroke:#000000;stroke-linejoin:miter;stroke-width:2;"/>
   </g>
   <g id="patch_4">
    <path clip-path="url(#p7aa5c49b5a)" d="M 25.56 40.86 
C 29.617607 40.86 33.509572 39.247895 36.378734 36.378734 
C 39.247895 33.509572 40.86 29.617607 40.86 25.56 
C 40.86 21.502393 39.247895 17.610428 36.378734 14.741266 
C 33.509572 11.872105 29.617607 10.26 25.56 10.26 
C 21.502393 10.26 17.610428 11.872105 14.741266 14.741266 
C 11.872105 17.610428 10.26 21.502393 10.26 25.56 
C 10.26 29.617607 11.872105 33.509572 14.741266 36.378734 
C 17.610428 39.247895 21.502393 40.86 25.56 40.86 
z
" style="fill:#ffffff;stroke:#000000;stroke-linejoin:miter;stroke-width:2;"/>
   </g>
   <g id="patch_5">
    <path clip-path="url(#p7aa5c49b5a)" d="M 19.090216 27.914809 
C 19.53842 29.146238 20.32902 30.22448 21.368678 31.022238 
C 22.408335 31.819995 23.65446 32.304586 24.959933 32.4188 
C 26.265406 32.533015 27.576747 32.272173 28.739139 31.66707 
C 29.901531 31.061967 30.867355 30.137391 31.522585 29.0025 
C 32.177815 27.867609 32.495608 26.568893 32.438447 25.259681 
C 32.381286 23.950468 31.951511 22.684392 31.199862 21.610926 
C 30.448213 20.537461 29.405482 19.700581 28.194775 19.199089 
C 26.984069 18.697598 25.654983 18.55204 24.364432 18.779599 
" style="fill:none;stroke:#000000;stroke-linejoin:miter;stroke-width:2;"/>
   </g>
   <g id="patch_6">
    <path clip-path="url(#p7aa5c49b5a)" d="M 54.619104 20.438614 
L 59.392153 26.842327 
L 57.249935 27.62203 
L 57.354594 27.909576 
L 57.325839 27.920042 
L 57.221181 27.632496 
L 55.078964 28.412199 
z
" style="stroke:#000000;stroke-linejoin:miter;stroke-width:0.6;"/>
   </g>
   <g id="patch_7">
    <path clip-path="url(#p7aa5c49b5a)" d="M 16.369104 20.438614 
L 21.142153 26.842327 
L 18.999935 27.62203 
L 19.104594 27.909576 
L 19.075839 27.920042 
L 18.971181 27.632496 
L 16.828964 28.412199 
z
" style="stroke:#000000;stroke-linejoin:miter;stroke-width:0.6;"/>
   </g>
   <g id="line2d_1">
    <path clip-path="url(#p7aa5c49b5a)" d="M 48.51 25.56 
L 44.685 25.56 
L 40.86 25.56 
" style="fill:none;stroke:#000000;stroke-linecap:round;stroke-width:2;"/>
   </g>
  </g>
 </g>
 <defs>
  <clipPath id="p7aa5c49b5a">
   <rect height="36.72" width="74.97" x="7.2" y="7.2"/>
  </clipPath>
 </defs>
</svg>
