<?xml version="1.0" encoding="utf-8" standalone="no"?>
<!DOCTYPE svg PUBLIC "-//W3C//DTD SVG 1.1//EN"
  "http://www.w3.org/Graphics/SVG/1.1/DTD/svg11.dtd">
<!-- Created with matplotlib (https://matplotlib.org/) -->
<svg height="196pt" version="1.1" viewBox="0 0 196 196" width="196pt" xmlns="http://www.w3.org/2000/svg" xmlns:xlink="http://www.w3.org/1999/xlink">
 <defs>
  <style type="text/css">
*{stroke-linecap:butt;stroke-linejoin:round;}
  </style>
 </defs>
 <g id="figure_1">
  <g id="patch_1">
   <path d="M 0 196 
L 196 196 
L 196 0 
L 0 0 
z
" style="fill:#ffffff;"/>
  </g>
  <g id="axes_1">
   <g id="PolyCollection_1">
    <defs>
     <path d="M 8 -18.948681 
L 8 -16.181818 
L 11.673469 -16.181818 
L 15.346939 -16.181818 
L 19.020408 -16.181818 
L 22.693878 -16.181818 
L 26.367347 -16.181818 
L 30.040816 -16.181818 
L 33.714286 -16.181818 
L 37.387755 -16.181818 
L 41.061224 -16.181818 
L 44.734694 -16.181818 
L 48.408163 -16.181818 
L 52.081633 -16.181818 
L 55.755102 -16.181818 
L 59.428571 -16.181818 
L 63.102041 -16.181818 
L 66.77551 -16.181818 
L 70.44898 -16.181818 
L 74.122449 -16.181818 
L 77.795918 -16.181818 
L 81.469388 -16.181818 
L 85.142857 -16.181818 
L 88.816327 -16.181818 
L 92.489796 -16.181818 
L 96.163265 -16.181818 
L 99.836735 -16.181818 
L 103.510204 -16.181818 
L 107.183673 -16.181818 
L 110.857143 -16.181818 
L 114.530612 -16.181818 
L 118.204082 -16.181818 
L 121.877551 -16.181818 
L 125.55102 -16.181818 
L 129.22449 -16.181818 
L 132.897959 -16.181818 
L 136.571429 -16.181818 
L 140.244898 -16.181818 
L 143.918367 -16.181818 
L 147.591837 -16.181818 
L 151.265306 -16.181818 
L 154.938776 -16.181818 
L 158.612245 -16.181818 
L 162.285714 -16.181818 
L 165.959184 -16.181818 
L 169.632653 -16.181818 
L 173.306122 -16.181818 
L 176.979592 -16.181818 
L 180.653061 -16.181818 
L 184.326531 -16.181818 
L 188 -16.181818 
L 188 -18.948681 
L 188 -18.948681 
L 184.326531 -20.016585 
L 180.653061 -21.424868 
L 176.979592 -23.253501 
L 173.306122 -25.591073 
L 169.632653 -28.532229 
L 165.959184 -32.173761 
L 162.285714 -36.609297 
L 158.612245 -41.922616 
L 154.938776 -48.179825 
L 151.265306 -55.420782 
L 147.591837 -63.650354 
L 143.918367 -72.830243 
L 140.244898 -82.872249 
L 136.571429 -93.633866 
L 132.897959 -104.917028 
L 129.22449 -116.470691 
L 125.55102 -127.997627 
L 121.877551 -139.165464 
L 118.204082 -149.621564 
L 114.530612 -159.010933 
L 110.857143 -166.995928 
L 107.183673 -173.276288 
L 103.510204 -177.607828 
L 99.836735 -179.818182 
L 96.163265 -179.818182 
L 92.489796 -177.607828 
L 88.816327 -173.276288 
L 85.142857 -166.995928 
L 81.469388 -159.010933 
L 77.795918 -149.621564 
L 74.122449 -139.165464 
L 70.44898 -127.997627 
L 66.77551 -116.470691 
L 63.102041 -104.917028 
L 59.428571 -93.633866 
L 55.755102 -82.872249 
L 52.081633 -72.830243 
L 48.408163 -63.650354 
L 44.734694 -55.420782 
L 41.061224 -48.179825 
L 37.387755 -41.922616 
L 33.714286 -36.609297 
L 30.040816 -32.173761 
L 26.367347 -28.532229 
L 22.693878 -25.591073 
L 19.020408 -23.253501 
L 15.346939 -21.424868 
L 11.673469 -20.016585 
L 8 -18.948681 
z
" id="m853161f6cb" style="stroke:#f6553c;stroke-width:0.3;"/>
    </defs>
    <g clip-path="url(#p0f7abdb31a)">
     <use style="fill:#f6553c;stroke:#f6553c;stroke-width:0.3;" x="0" xlink:href="#m853161f6cb" y="196"/>
    </g>
   </g>
   <g id="line2d_1">
    <path clip-path="url(#p0f7abdb31a)" d="M 8 177.051319 
L 11.673469 175.983415 
L 15.346939 174.575132 
L 19.020408 172.746499 
L 22.693878 170.408927 
L 26.367347 167.467771 
L 30.040816 163.826239 
L 33.714286 159.390703 
L 37.387755 154.077384 
L 41.061224 147.820175 
L 44.734694 140.579218 
L 48.408163 132.349646 
L 52.081633 123.169757 
L 55.755102 113.127751 
L 59.428571 102.366134 
L 63.102041 91.082972 
L 66.77551 79.529309 
L 70.44898 68.002373 
L 74.122449 56.834536 
L 77.795918 46.378436 
L 81.469388 36.989067 
L 85.142857 29.004072 
L 88.816327 22.723712 
L 92.489796 18.392172 
L 96.163265 16.181818 
L 99.836735 16.181818 
L 103.510204 18.392172 
L 107.183673 22.723712 
L 110.857143 29.004072 
L 114.530612 36.989067 
L 118.204082 46.378436 
L 121.877551 56.834536 
L 125.55102 68.002373 
L 129.22449 79.529309 
L 132.897959 91.082972 
L 136.571429 102.366134 
L 140.244898 113.127751 
L 143.918367 123.169757 
L 147.591837 132.349646 
L 151.265306 140.579218 
L 154.938776 147.820175 
L 158.612245 154.077384 
L 162.285714 159.390703 
L 165.959184 163.826239 
L 169.632653 167.467771 
L 173.306122 170.408927 
L 176.979592 172.746499 
L 180.653061 174.575132 
L 184.326531 175.983415 
L 188 177.051319 
" style="fill:none;stroke:#000000;stroke-linecap:square;stroke-width:2;"/>
   </g>
  </g>
 </g>
 <defs>
  <clipPath id="p0f7abdb31a">
   <rect height="180" width="180" x="8" y="8"/>
  </clipPath>
 </defs>
</svg>
